<svg xmlns="http://www.w3.org/2000/svg" viewBox="0 0 122.32 138.9"><defs><style>.cls-1{fill:#302e2c;}</style></defs><g id="Layer_2" data-name="Layer 2"><g id="Layer_1-2" data-name="Layer 1"><path class="cls-1" d="M58,138.9a1,1,0,0,1-.9-.59L1.38,15.89A15.1,15.1,0,0,1,2.31,1.55,16.19,16.19,0,0,1,3.41,0h0l1,1.38L32.73,41.55c.56.88,1.16,1.72,1.8,2.55L56.82,75.71a12.24,12.24,0,0,1,2.24,7V137.9A1,1,0,0,1,58,138.9Z"/><path class="cls-1" d="M64.28,138.9a1,1,0,0,0,.9-.59L120.94,15.89A15.13,15.13,0,0,0,120,1.55,18.18,18.18,0,0,0,118.91,0h0l-1,1.38L89.59,41.55c-.56.88-1.16,1.72-1.8,2.55L65.5,75.71a12.17,12.17,0,0,0-2.24,7V137.9A1,1,0,0,0,64.28,138.9Z"/><path class="cls-1" d="M91.11,25.3c.1,0,.23-.08.39-.28l13.32-18.9a3.88,3.88,0,0,0-3-6.11H83.18a2.07,2.07,0,0,0-1.41,3.59,29.42,29.42,0,0,1,9.11,21.29C90.88,25.1,91,25.3,91.11,25.3Z"/><path class="cls-1" d="M30.7,24.83a.72.72,0,0,0,.51.31.23.23,0,0,0,.23-.26A29.39,29.39,0,0,1,40.56,3.59,2.07,2.07,0,0,0,39.15,0H20.48a3.88,3.88,0,0,0-3,6.11Z"/><path class="cls-1" d="M67.78.89a3.33,3.33,0,0,0-4.25,3.16V18.57a4,4,0,0,0,4,3.94H81.74A3.55,3.55,0,0,0,85.15,18,25,25,0,0,0,67.78.89Z"/><path class="cls-1" d="M36.19,24.88A24.67,24.67,0,0,0,40,38l1.66,2.35a25,25,0,0,0,39.06,0L82.32,38a24.84,24.84,0,0,0,2.82-6.25,3.54,3.54,0,0,0-3.39-4.54H64.67a5.86,5.86,0,0,1-5.88-5.85V4.26A3.47,3.47,0,0,0,54.36,1,24.92,24.92,0,0,0,36.19,24.88Z"/><path class="cls-1" d="M64.2,63.72l4.47-6.33A2.17,2.17,0,0,0,66.53,54,29.62,29.62,0,0,1,55.8,54a2.17,2.17,0,0,0-2.14,3.4l4.47,6.33A3.71,3.71,0,0,0,64.2,63.72Z"/></g></g></svg>